<?xml version="1.0" encoding="UTF-8" standalone="no"?>
<!DOCTYPE svg PUBLIC "-//W3C//DTD SVG 1.1//EN" "http://www.w3.org/Graphics/SVG/1.1/DTD/svg11.dtd">
<svg width="100%" height="100%" viewBox="0 0 200 200" version="1.1" xmlns="http://www.w3.org/2000/svg" xmlns:xlink="http://www.w3.org/1999/xlink" xml:space="preserve" xmlns:serif="http://www.serif.com/" style="fill-rule:evenodd;clip-rule:evenodd;stroke-linejoin:round;stroke-miterlimit:2;">
    <g transform="matrix(1,0,0,1,-11139.027217,-16494.82154)">
        <g id="Página-21" serif:id="Página 21" transform="matrix(0.2,0,0,0.2,11139.027217,16494.82154)">
            <rect x="0" y="0" width="1000" height="1000" style="fill:none;"/>
            <clipPath id="_clip1">
                <rect x="0" y="0" width="1000" height="1000"/>
            </clipPath>
            <g clip-path="url(#_clip1)">
                <g id="Capa-1" serif:id="Capa 1" transform="matrix(20.833333,0,0,20.833333,-18482.489671,-18554.587)">
                    <g transform="matrix(0.270281,0,0,0.270281,730.690653,734.151365)">
                        <g transform="matrix(1,0,0,1,650.170181,661.151781)">
                            <path d="M0,13.113C-0.365,12.624 -0.657,12.069 -1.05,11.605C-2.792,9.548 -4.883,7.945 -7.135,6.555C-4.883,5.165 -2.792,3.565 -1.05,1.508C-0.657,1.043 -0.365,0.488 0,0L0,5.97C0.024,6.199 0.106,6.347 0.144,6.555C0.106,6.768 0.024,6.914 0,7.142L0,13.113ZM-3.085,45.142C-4.791,48.243 -7.115,50.671 -10.047,52.425C-12.979,54.172 -16.28,55.053 -19.958,55.053C-23.627,55.053 -26.96,54.172 -29.932,52.425C-32.905,50.671 -35.244,48.243 -36.951,45.142C-38.657,42.034 -39.514,38.42 -39.514,34.31C-39.514,30.288 -38.657,26.715 -36.951,23.615C-35.244,20.506 -32.881,18.078 -29.868,16.324C-26.848,14.577 -23.547,13.704 -19.958,13.704C-16.28,13.704 -12.979,14.577 -10.047,16.324C-7.115,18.078 -4.791,20.506 -3.085,23.615C-1.378,26.715 -0.529,30.288 -0.529,34.31C-0.529,38.42 -1.378,42.034 -3.085,45.142M-39.514,-21.198C-39.514,-25.308 -38.657,-28.921 -36.951,-32.03C-35.244,-35.13 -32.905,-37.558 -29.932,-39.313C-26.96,-41.059 -23.627,-41.94 -19.958,-41.94C-16.28,-41.94 -12.979,-41.059 -10.047,-39.313C-7.115,-37.558 -4.791,-35.13 -3.085,-32.03C-1.378,-28.921 -0.529,-25.308 -0.529,-21.198C-0.529,-17.176 -1.378,-13.603 -3.085,-10.502C-4.791,-7.393 -7.115,-4.966 -10.047,-3.211C-12.979,-1.465 -16.28,-0.591 -19.958,-0.591C-23.547,-0.591 -26.848,-1.465 -29.868,-3.211C-32.881,-4.966 -35.244,-7.393 -36.951,-10.502C-38.657,-13.603 -39.514,-17.176 -39.514,-21.198M9.382,-81.519C8.549,-81.992 7.307,-82.24 5.64,-82.24C3.982,-82.24 2.732,-81.992 1.899,-81.519C1.066,-81.03 0.545,-80.357 0.328,-79.484C0.104,-78.603 0,-77.513 0,-76.199L0,-42.527C-0.389,-43.038 -0.693,-43.623 -1.114,-44.104C-3.613,-46.948 -6.586,-49.159 -10.047,-50.729C-13.5,-52.308 -17.378,-53.093 -21.664,-53.093C-25.598,-53.093 -29.363,-52.308 -32.953,-50.729C-36.542,-49.159 -39.667,-46.948 -42.335,-44.104C-45.003,-41.259 -47.102,-37.91 -48.632,-34.065C-50.17,-30.211 -50.931,-26.013 -50.931,-21.462C-50.931,-16.823 -50.17,-12.553 -48.632,-8.659C-47.102,-4.765 -45.003,-1.376 -42.335,1.508C-40.436,3.565 -38.225,5.165 -35.861,6.555C-38.225,7.945 -40.436,9.548 -42.335,11.605C-45.003,14.489 -47.102,17.878 -48.632,21.772C-50.17,25.666 -50.931,29.936 -50.931,34.575C-50.931,39.125 -50.17,43.324 -48.632,47.177C-47.102,51.023 -45.003,54.372 -42.335,57.216C-39.667,60.06 -36.542,62.272 -32.953,63.842C-29.363,65.42 -25.598,66.206 -21.664,66.206C-17.378,66.206 -13.5,65.42 -10.047,63.842C-6.586,62.272 -3.613,60.06 -1.114,57.216C-0.693,56.735 -0.389,56.151 0,55.64L0,89.312C0,90.626 0.104,91.715 0.328,92.597C0.545,93.47 1.066,94.143 1.899,94.632C2.732,95.104 3.982,95.353 5.64,95.353C7.307,95.353 8.549,95.104 9.382,94.632C10.215,94.143 10.76,93.47 11.024,92.597C11.289,91.715 11.417,90.666 11.417,89.44L11.417,8.584C11.417,7.813 11.273,7.208 11.169,6.555C11.273,5.904 11.417,5.299 11.417,4.528L11.417,-76.327C11.417,-77.553 11.289,-78.603 11.024,-79.484C10.76,-80.357 10.215,-81.03 9.382,-81.519" style="fill:rgb(29,29,27);fill-rule:nonzero;"/>
                        </g>
                        <g transform="matrix(1,0,0,1,650.170181,661.151781)">
                            <path d="M0,13.113C-0.365,12.624 -0.657,12.069 -1.05,11.605C-2.792,9.548 -4.883,7.945 -7.135,6.555C-4.883,5.165 -2.792,3.565 -1.05,1.508C-0.657,1.043 -0.365,0.488 0,0L0,5.97C0.024,6.199 0.106,6.347 0.144,6.555C0.106,6.768 0.024,6.914 0,7.142L0,13.113ZM-3.085,45.142C-4.791,48.243 -7.115,50.671 -10.047,52.425C-12.979,54.172 -16.28,55.053 -19.958,55.053C-23.627,55.053 -26.96,54.172 -29.932,52.425C-32.905,50.671 -35.244,48.243 -36.951,45.142C-38.657,42.034 -39.514,38.42 -39.514,34.31C-39.514,30.288 -38.657,26.715 -36.951,23.615C-35.244,20.506 -32.881,18.078 -29.868,16.324C-26.848,14.577 -23.547,13.704 -19.958,13.704C-16.28,13.704 -12.979,14.577 -10.047,16.324C-7.115,18.078 -4.791,20.506 -3.085,23.615C-1.378,26.715 -0.529,30.288 -0.529,34.31C-0.529,38.42 -1.378,42.034 -3.085,45.142M-39.514,-21.198C-39.514,-25.308 -38.657,-28.921 -36.951,-32.03C-35.244,-35.13 -32.905,-37.558 -29.932,-39.313C-26.96,-41.059 -23.627,-41.94 -19.958,-41.94C-16.28,-41.94 -12.979,-41.059 -10.047,-39.313C-7.115,-37.558 -4.791,-35.13 -3.085,-32.03C-1.378,-28.921 -0.529,-25.308 -0.529,-21.198C-0.529,-17.176 -1.378,-13.603 -3.085,-10.502C-4.791,-7.393 -7.115,-4.966 -10.047,-3.211C-12.979,-1.465 -16.28,-0.591 -19.958,-0.591C-23.547,-0.591 -26.848,-1.465 -29.868,-3.211C-32.881,-4.966 -35.244,-7.393 -36.951,-10.502C-38.657,-13.603 -39.514,-17.176 -39.514,-21.198M9.382,-81.519C8.549,-81.992 7.307,-82.24 5.64,-82.24C3.982,-82.24 2.732,-81.992 1.899,-81.519C1.066,-81.03 0.545,-80.357 0.328,-79.484C0.104,-78.603 0,-77.513 0,-76.199L0,-42.527C-0.389,-43.038 -0.693,-43.623 -1.114,-44.104C-3.613,-46.948 -6.586,-49.159 -10.047,-50.729C-13.5,-52.308 -17.378,-53.093 -21.664,-53.093C-25.598,-53.093 -29.363,-52.308 -32.953,-50.729C-36.542,-49.159 -39.667,-46.948 -42.335,-44.104C-45.003,-41.259 -47.102,-37.91 -48.632,-34.065C-50.17,-30.211 -50.931,-26.013 -50.931,-21.462C-50.931,-16.823 -50.17,-12.553 -48.632,-8.659C-47.102,-4.765 -45.003,-1.376 -42.335,1.508C-40.436,3.565 -38.225,5.165 -35.861,6.555C-38.225,7.945 -40.436,9.548 -42.335,11.605C-45.003,14.489 -47.102,17.878 -48.632,21.772C-50.17,25.666 -50.931,29.936 -50.931,34.575C-50.931,39.125 -50.17,43.324 -48.632,47.177C-47.102,51.023 -45.003,54.372 -42.335,57.216C-39.667,60.06 -36.542,62.272 -32.953,63.842C-29.363,65.42 -25.598,66.206 -21.664,66.206C-17.378,66.206 -13.5,65.42 -10.047,63.842C-6.586,62.272 -3.613,60.06 -1.114,57.216C-0.693,56.735 -0.389,56.151 0,55.64L0,89.312C0,90.626 0.104,91.715 0.328,92.597C0.545,93.47 1.066,94.143 1.899,94.632C2.732,95.104 3.982,95.353 5.64,95.353C7.307,95.353 8.549,95.104 9.382,94.632C10.215,94.143 10.76,93.47 11.024,92.597C11.289,91.715 11.417,90.666 11.417,89.44L11.417,8.584C11.417,7.813 11.273,7.208 11.169,6.555C11.273,5.904 11.417,5.299 11.417,4.528L11.417,-76.327C11.417,-77.553 11.289,-78.603 11.024,-79.484C10.76,-80.357 10.215,-81.03 9.382,-81.519" style="fill:rgb(235,168,47);fill-rule:nonzero;"/>
                        </g>
                        <g transform="matrix(1,0,0,1,722.196681,629.122181)">
                            <path d="M0,77.172C-1.707,80.273 -4.046,82.7 -7.018,84.455C-9.991,86.201 -13.324,87.083 -16.993,87.083C-20.671,87.083 -23.971,86.201 -26.904,84.455C-29.836,82.7 -32.16,80.273 -33.866,77.172C-35.573,74.063 -36.422,70.45 -36.422,66.34C-36.422,62.318 -35.573,58.745 -33.866,55.644C-32.16,52.536 -29.836,50.108 -26.904,48.353C-23.971,46.607 -20.671,45.734 -16.993,45.734C-13.404,45.734 -10.103,46.607 -7.082,48.353C-4.07,50.108 -1.707,52.536 0,55.644C1.707,58.745 2.564,62.318 2.564,66.34C2.564,70.45 1.707,74.063 0,77.172M-37.095,38.585C-37.059,38.377 -36.975,38.228 -36.951,38L-36.951,32.029C-36.586,32.518 -36.294,33.073 -35.901,33.537C-34.159,35.595 -32.067,37.195 -29.816,38.585C-32.067,39.975 -34.159,41.577 -35.901,43.634C-36.294,44.099 -36.586,44.654 -36.951,45.143L-36.951,39.172C-36.975,38.943 -37.059,38.797 -37.095,38.585M-33.866,0C-32.16,-3.101 -29.836,-5.528 -26.904,-7.283C-23.971,-9.029 -20.671,-9.911 -16.993,-9.911C-13.324,-9.911 -9.991,-9.029 -7.018,-7.283C-4.046,-5.528 -1.707,-3.101 0,0C1.707,3.108 2.564,6.722 2.564,10.832C2.564,14.854 1.707,18.427 0,21.528C-1.707,24.636 -4.07,27.064 -7.082,28.818C-10.103,30.565 -13.404,31.438 -16.993,31.438C-20.671,31.438 -23.971,30.565 -26.904,28.818C-29.836,27.064 -32.16,24.636 -33.866,21.528C-35.573,18.427 -36.422,14.854 -36.422,10.832C-36.422,6.722 -35.573,3.108 -33.866,0M5.384,43.634C3.485,41.577 1.272,39.975 -1.09,38.585C1.272,37.195 3.485,35.595 5.384,33.537C8.052,30.653 10.151,27.264 11.681,23.37C13.22,19.477 13.981,15.206 13.981,10.568C13.981,6.017 13.22,1.819 11.681,-2.035C10.151,-5.881 8.052,-9.23 5.384,-12.074C2.716,-14.918 -0.409,-17.129 -3.998,-18.7C-7.587,-20.278 -11.353,-21.063 -15.287,-21.063C-19.573,-21.063 -23.451,-20.278 -26.904,-18.7C-30.365,-17.129 -33.337,-14.918 -35.837,-12.074C-36.258,-11.593 -36.562,-11.008 -36.951,-10.498L-36.951,-44.169C-36.951,-45.483 -37.055,-46.573 -37.279,-47.454C-37.495,-48.328 -38.016,-49.001 -38.849,-49.489C-39.683,-49.962 -40.933,-50.21 -42.591,-50.21C-44.257,-50.21 -45.499,-49.962 -46.333,-49.489C-47.166,-49.001 -47.711,-48.328 -47.975,-47.454C-48.239,-46.573 -48.368,-45.523 -48.368,-44.298L-48.368,36.558C-48.368,37.329 -48.223,37.934 -48.121,38.585C-48.223,39.238 -48.368,39.843 -48.368,40.614L-48.368,121.47C-48.368,122.695 -48.239,123.745 -47.975,124.626C-47.711,125.499 -47.166,126.172 -46.333,126.661C-45.499,127.134 -44.257,127.382 -42.591,127.382C-40.933,127.382 -39.683,127.134 -38.849,126.661C-38.016,126.172 -37.495,125.499 -37.279,124.626C-37.055,123.745 -36.951,122.655 -36.951,121.341L-36.951,87.67C-36.562,88.18 -36.258,88.765 -35.837,89.246C-33.337,92.09 -30.365,94.301 -26.904,95.872C-23.451,97.45 -19.573,98.235 -15.287,98.235C-11.353,98.235 -7.587,97.45 -3.998,95.872C-0.409,94.301 2.716,92.09 5.384,89.246C8.052,86.402 10.151,83.053 11.681,79.207C13.22,75.353 13.981,71.155 13.981,66.604C13.981,61.966 13.22,57.695 11.681,53.801C10.151,49.908 8.052,46.519 5.384,43.634" style="fill:rgb(29,29,27);fill-rule:nonzero;"/>
                        </g>
                        <g transform="matrix(1,0,0,1,722.196681,629.122181)">
                            <path d="M0,77.172C-1.707,80.273 -4.046,82.7 -7.018,84.455C-9.991,86.201 -13.324,87.083 -16.993,87.083C-20.671,87.083 -23.971,86.201 -26.904,84.455C-29.836,82.7 -32.16,80.273 -33.866,77.172C-35.573,74.063 -36.422,70.45 -36.422,66.34C-36.422,62.318 -35.573,58.745 -33.866,55.644C-32.16,52.536 -29.836,50.108 -26.904,48.353C-23.971,46.607 -20.671,45.734 -16.993,45.734C-13.404,45.734 -10.103,46.607 -7.082,48.353C-4.07,50.108 -1.707,52.536 0,55.644C1.707,58.745 2.564,62.318 2.564,66.34C2.564,70.45 1.707,74.063 0,77.172M-37.095,38.585C-37.059,38.377 -36.975,38.228 -36.951,38L-36.951,32.029C-36.586,32.518 -36.294,33.073 -35.901,33.537C-34.159,35.595 -32.067,37.195 -29.816,38.585C-32.067,39.975 -34.159,41.577 -35.901,43.634C-36.294,44.099 -36.586,44.654 -36.951,45.143L-36.951,39.172C-36.975,38.943 -37.059,38.797 -37.095,38.585M-33.866,0C-32.16,-3.101 -29.836,-5.528 -26.904,-7.283C-23.971,-9.029 -20.671,-9.911 -16.993,-9.911C-13.324,-9.911 -9.991,-9.029 -7.018,-7.283C-4.046,-5.528 -1.707,-3.101 0,0C1.707,3.108 2.564,6.722 2.564,10.832C2.564,14.854 1.707,18.427 0,21.528C-1.707,24.636 -4.07,27.064 -7.082,28.818C-10.103,30.565 -13.404,31.438 -16.993,31.438C-20.671,31.438 -23.971,30.565 -26.904,28.818C-29.836,27.064 -32.16,24.636 -33.866,21.528C-35.573,18.427 -36.422,14.854 -36.422,10.832C-36.422,6.722 -35.573,3.108 -33.866,0M5.384,43.634C3.485,41.577 1.272,39.975 -1.09,38.585C1.272,37.195 3.485,35.595 5.384,33.537C8.052,30.653 10.151,27.264 11.681,23.37C13.22,19.477 13.981,15.206 13.981,10.568C13.981,6.017 13.22,1.819 11.681,-2.035C10.151,-5.881 8.052,-9.23 5.384,-12.074C2.716,-14.918 -0.409,-17.129 -3.998,-18.7C-7.587,-20.278 -11.353,-21.063 -15.287,-21.063C-19.573,-21.063 -23.451,-20.278 -26.904,-18.7C-30.365,-17.129 -33.337,-14.918 -35.837,-12.074C-36.258,-11.593 -36.562,-11.008 -36.951,-10.498L-36.951,-44.169C-36.951,-45.483 -37.055,-46.573 -37.279,-47.454C-37.495,-48.328 -38.016,-49.001 -38.849,-49.489C-39.683,-49.962 -40.933,-50.21 -42.591,-50.21C-44.257,-50.21 -45.499,-49.962 -46.333,-49.489C-47.166,-49.001 -47.711,-48.328 -47.975,-47.454C-48.239,-46.573 -48.368,-45.523 -48.368,-44.298L-48.368,36.558C-48.368,37.329 -48.223,37.934 -48.121,38.585C-48.223,39.238 -48.368,39.843 -48.368,40.614L-48.368,121.47C-48.368,122.695 -48.239,123.745 -47.975,124.626C-47.711,125.499 -47.166,126.172 -46.333,126.661C-45.499,127.134 -44.257,127.382 -42.591,127.382C-40.933,127.382 -39.683,127.134 -38.849,126.661C-38.016,126.172 -37.495,125.499 -37.279,124.626C-37.055,123.745 -36.951,122.655 -36.951,121.341L-36.951,87.67C-36.562,88.18 -36.258,88.765 -35.837,89.246C-33.337,92.09 -30.365,94.301 -26.904,95.872C-23.451,97.45 -19.573,98.235 -15.287,98.235C-11.353,98.235 -7.587,97.45 -3.998,95.872C-0.409,94.301 2.716,92.09 5.384,89.246C8.052,86.402 10.151,83.053 11.681,79.207C13.22,75.353 13.981,71.155 13.981,66.604C13.981,61.966 13.22,57.695 11.681,53.801C10.151,49.908 8.052,46.519 5.384,43.634" style="fill:rgb(235,168,47);fill-rule:nonzero;"/>
                        </g>
                    </g>
                </g>
            </g>
        </g>
    </g>
</svg>
